<svg width="70" height="70" viewBox="0 0 70 70" fill="none" xmlns="http://www.w3.org/2000/svg">
<circle cx="35" cy="35" r="35" fill="#143642"/>
<path d="M35 32.9585C36.6914 32.9585 38.0625 31.5874 38.0625 29.896C38.0625 28.2046 36.6914 26.8335 35 26.8335C33.3086 26.8335 31.9375 28.2046 31.9375 29.896C31.9375 31.5874 33.3086 32.9585 35 32.9585Z" fill="white"/>
<path d="M34.9993 14.5835C30.6956 14.5833 26.5657 16.2817 23.5073 19.3095C20.4489 22.3374 18.7091 26.45 18.666 30.7535C18.666 41.9418 33.0598 54.396 33.6723 54.9268C34.0421 55.2431 34.5127 55.417 34.9993 55.417C35.486 55.417 35.9566 55.2431 36.3264 54.9268C37.041 54.396 51.3327 41.9418 51.3327 30.7535C51.2896 26.45 49.5498 22.3374 46.4914 19.3095C43.433 16.2817 39.3031 14.5833 34.9993 14.5835ZM34.9993 37.0418C33.586 37.0418 32.2045 36.6227 31.0293 35.8375C29.8542 35.0523 28.9383 33.9363 28.3975 32.6306C27.8566 31.3249 27.7151 29.8881 27.9908 28.5019C28.2665 27.1158 28.9471 25.8425 29.9465 24.8431C30.9458 23.8438 32.2191 23.1632 33.6053 22.8875C34.9914 22.6117 36.4282 22.7533 37.7339 23.2941C39.0397 23.835 40.1557 24.7509 40.9409 25.926C41.7261 27.1011 42.1452 28.4827 42.1452 29.896C42.1452 31.7912 41.3923 33.6088 40.0522 34.9489C38.7121 36.289 36.8945 37.0418 34.9993 37.0418Z" fill="white"/>
</svg>
