<svg width="70" height="70" viewBox="0 0 70 70" fill="none" xmlns="http://www.w3.org/2000/svg">
<circle cx="35" cy="35" r="35" fill="#143642"/>
<path d="M52.3773 22.0154L47.2812 16.924C46.9217 16.563 46.4944 16.2765 46.0238 16.081C45.5533 15.8856 45.0488 15.785 44.5393 15.7852C43.5009 15.7852 42.5247 16.1919 41.7926 16.924L36.3088 22.4078C35.9477 22.7673 35.6612 23.1946 35.4658 23.6651C35.2704 24.1357 35.1698 24.6402 35.1699 25.1497C35.1699 26.1881 35.5767 27.1643 36.3088 27.8964L40.3188 31.9063C39.3801 33.9753 38.0751 35.8574 36.4667 37.4619C34.8623 39.0742 32.9804 40.384 30.9111 41.3283L26.9012 37.3184C26.5417 36.9573 26.1144 36.6708 25.6439 36.4754C25.1733 36.2799 24.6688 36.1794 24.1593 36.1795C23.1209 36.1795 22.1447 36.5862 21.4126 37.3184L15.924 42.7974C15.5625 43.1575 15.2758 43.5856 15.0803 44.057C14.8849 44.5284 14.7846 45.0337 14.7852 45.544C14.7852 46.5824 15.1919 47.5586 15.924 48.2907L21.0106 53.3773C22.1782 54.5497 23.7908 55.2148 25.4465 55.2148C25.7958 55.2148 26.1308 55.1861 26.4609 55.1287C32.9113 54.0664 39.3091 50.6354 44.4723 45.4771C49.6307 40.3234 53.0568 33.9305 54.1335 27.4609C54.4589 25.4847 53.8033 23.451 52.3773 22.0154Z" fill="white"/>
</svg>
