<svg width="63" height="63" viewBox="0 0 63 63" fill="none" xmlns="http://www.w3.org/2000/svg">
<path d="M31.5 0.250488C48.7812 0.250488 62.75 14.2505 62.75 31.5005C62.75 48.7817 48.7812 62.7505 31.5 62.7505C14.25 62.7505 0.25 48.7817 0.25 31.5005C0.25 14.2505 14.25 0.250488 31.5 0.250488ZM30.4062 15.6567C29.125 15.6567 28.0625 16.688 28.0625 18.0005V33.7817C28.0625 34.5942 28.5 35.3442 29.2187 35.7817L41.4687 43.0942C41.8437 43.313 42.25 43.438 42.6875 43.438C43.4687 43.438 44.25 43.0317 44.6875 42.2817C45.3437 41.188 45 39.7505 43.875 39.063L32.75 32.438V18.0005C32.75 16.688 31.6875 15.6567 30.4062 15.6567Z" fill="#143642"/>
</svg>
